<?xml version="1.0" standalone="no"?>
<!DOCTYPE svg PUBLIC "-//W3C//DTD SVG 20010904//EN"
 "http://www.w3.org/TR/2001/REC-SVG-20010904/DTD/svg10.dtd">
<svg version="1.0" xmlns="http://www.w3.org/2000/svg"
 width="1200.000000pt" height="1200.000000pt" viewBox="0 0 1200.000000 1200.000000"
 preserveAspectRatio="xMidYMid meet">
<metadata>
Created by potrace 1.11, written by Peter Selinger 2001-2013
</metadata>
<g transform="translate(0.000000,1200.000000) scale(0.100000,-0.100000)"
fill="#000000" stroke="none">
<path d="M6285 11426 c-120 -29 -216 -108 -253 -209 -19 -51 -35 -138 -47
-264 -27 -273 -42 -487 -41 -593 1 -115 3 -129 29 -181 62 -127 198 -204 378
-214 179 -9 321 62 388 193 28 54 50 186 66 392 3 41 8 89 10 105 11 88 20
246 20 370 0 123 -3 146 -22 187 -45 98 -144 176 -263 208 -63 17 -207 20
-265 6z m186 -257 c9 -19 6 -188 -6 -248 -2 -9 -6 -61 -10 -116 -3 -55 -8
-111 -10 -125 -2 -14 -7 -59 -10 -100 -28 -353 -32 -370 -86 -370 -41 0 -52
34 -45 130 13 160 17 206 21 245 2 22 7 76 10 120 3 44 8 96 10 115 2 19 9 96
16 170 13 164 26 200 68 200 21 0 34 -7 42 -21z"/>
<path d="M5340 11382 c-58 -3 -374 -43 -469 -58 l-33 -5 6 -62 c4 -34 13 -105
21 -157 16 -108 16 -109 50 -357 14 -101 36 -265 50 -365 14 -101 27 -199 30
-218 3 -19 7 -52 9 -72 5 -41 14 -95 23 -142 5 -28 5 -28 63 -22 32 4 66 8 77
10 10 2 61 9 113 16 52 7 100 16 106 19 7 4 0 78 -22 236 -18 127 -35 248 -37
270 -3 22 -9 59 -13 83 l-7 42 37 0 c69 0 79 -25 116 -310 6 -47 13 -96 15
-110 2 -14 6 -45 10 -70 11 -91 17 -120 23 -124 6 -3 223 25 301 39 l33 6 -6
53 c-5 52 -52 385 -62 441 -21 123 -73 181 -179 201 -22 4 -33 9 -25 12 53 16
100 48 119 82 40 72 20 297 -39 416 -56 114 -145 156 -310 146z m-5 -279 c16
-22 23 -54 31 -144 9 -93 2 -115 -42 -129 -41 -14 -54 -5 -54 41 0 14 -7 70
-15 125 -22 143 -23 138 26 131 23 -3 46 -13 54 -24z"/>
<path d="M7121 11243 c-7 -43 -17 -100 -22 -128 -4 -27 -11 -70 -13 -95 -3
-25 -7 -54 -10 -65 -2 -11 -9 -56 -16 -100 -17 -121 -20 -138 -25 -165 -2 -14
-7 -45 -10 -70 -3 -25 -8 -52 -10 -60 -2 -8 -6 -35 -9 -60 -3 -25 -8 -54 -10
-65 -2 -11 -9 -56 -16 -100 -6 -44 -13 -91 -16 -105 -27 -162 -45 -313 -38
-319 5 -4 86 -32 179 -61 94 -28 204 -63 245 -76 95 -31 102 -30 118 6 7 16
49 107 93 202 44 95 86 187 94 203 7 17 31 68 53 115 57 121 178 383 215 465
18 38 53 114 78 170 32 67 43 102 35 106 -16 9 -339 109 -352 109 -6 0 -18
-17 -26 -37 -9 -21 -77 -184 -151 -363 -74 -179 -145 -353 -157 -388 -13 -34
-24 -61 -26 -60 -1 2 17 95 42 208 56 260 134 655 134 681 0 11 -6 21 -12 24
-195 62 -338 105 -345 105 -6 0 -16 -35 -22 -77z"/>
<path d="M4316 11153 c-68 -14 -484 -157 -498 -171 -4 -4 42 -144 103 -312 60
-168 166 -465 236 -660 69 -195 127 -356 128 -358 5 -7 345 123 345 132 0 6
-41 123 -90 260 -50 137 -90 254 -90 261 0 6 20 17 44 24 121 35 228 108 260
175 20 42 20 114 2 181 -22 80 -91 265 -121 325 -67 134 -159 175 -319 143z
m40 -288 c28 -42 84 -206 84 -245 0 -37 -15 -56 -61 -73 -18 -6 -14 -16 -92
203 -49 137 -49 138 20 139 24 1 37 -6 49 -24z"/>
<path d="M8223 10793 c-81 -157 -212 -413 -368 -718 -70 -137 -147 -287 -171
-332 -32 -61 -40 -84 -31 -91 36 -28 310 -163 317 -156 4 5 23 38 42 74 33 61
78 147 376 730 63 124 139 271 168 327 30 57 54 107 54 113 0 8 -284 159 -316
168 -5 1 -37 -50 -71 -115z"/>
<path d="M8802 10403 c-70 -93 -171 -224 -224 -293 -52 -69 -188 -246 -302
-395 -187 -244 -205 -271 -189 -282 10 -7 103 -78 207 -158 274 -211 333 -245
423 -245 54 0 107 26 157 77 83 83 543 688 583 766 21 41 27 66 27 117 0 136
-76 219 -471 518 l-82 62 -129 -167z m321 -303 c15 -25 15 -30 -3 -66 -23 -45
-427 -573 -476 -621 -18 -18 -40 -33 -49 -33 -23 0 -77 30 -73 40 2 5 127 170
278 368 295 386 285 377 323 312z"/>
<path d="M3518 10395 c-155 -39 -228 -205 -152 -345 78 -143 267 -167 381 -48
162 169 -2 451 -229 393z"/>
<path d="M2973 10316 c-36 -34 -38 -56 -15 -176 6 -30 13 -89 16 -130 6 -84
17 -147 46 -268 20 -82 19 -111 -3 -95 -21 14 -63 9 -92 -12 -80 -58 -104
-102 -106 -195 -1 -65 -21 -135 -39 -135 -9 0 -21 26 -35 77 -11 43 -26 83
-32 90 -26 25 -57 -47 -89 -205 -20 -94 -24 -94 -42 2 -9 45 -24 48 -56 14
-30 -33 -32 -55 -7 -102 16 -30 17 -41 6 -85 -6 -28 -17 -62 -25 -75 l-13 -25
-21 26 c-11 15 -29 38 -39 52 -22 32 -39 33 -68 1 -13 -13 -32 -25 -42 -25
-10 0 -30 -20 -47 -46 -25 -40 -28 -53 -25 -109 3 -68 8 -89 35 -150 15 -35
17 -55 11 -127 0 -10 -13 -25 -27 -35 -26 -17 -27 -16 -45 8 -11 13 -23 29
-28 35 -19 23 -71 204 -90 314 -11 64 -30 142 -41 175 -12 33 -25 74 -29 90
-7 30 -7 30 -71 26 -61 -3 -110 -24 -131 -54 -18 -25 86 -285 176 -442 31 -54
44 -80 77 -150 5 -11 15 -31 23 -45 16 -27 20 -127 6 -149 -7 -11 -15 -7 -37
18 -23 25 -39 33 -81 38 -51 6 -52 6 -58 45 -12 67 -54 90 -74 41 -29 -70 -23
-135 25 -273 9 -25 17 -61 19 -81 1 -19 12 -61 24 -92 11 -32 21 -66 21 -76 0
-15 18 -31 35 -31 2 0 2 28 -1 63 -2 34 -6 97 -8 139 -3 42 -10 93 -17 111 -7
19 -9 42 -6 50 5 14 12 13 46 -10 23 -15 42 -36 46 -52 19 -78 27 -101 35
-101 12 0 44 71 60 130 6 25 16 59 21 76 5 17 6 39 3 49 -7 16 -5 16 17 3 27
-17 71 -17 93 1 28 24 58 105 61 166 2 56 4 60 24 57 33 -5 71 41 75 91 5 51
30 114 40 98 4 -6 18 -11 32 -11 33 0 50 41 53 133 1 31 16 35 42 11 15 -14
20 -14 31 -3 12 13 31 100 48 219 l6 45 13 -51 c20 -73 33 -88 67 -77 22 7 31
19 39 54 7 24 19 58 28 76 10 18 17 44 17 59 0 22 2 25 15 14 18 -15 84 -15
130 0 32 10 75 63 75 93 0 7 7 21 15 31 12 16 19 17 38 9 16 -8 27 -7 39 1 23
17 130 225 122 237 -8 14 -41 -16 -60 -55 -21 -44 -51 -82 -60 -74 -6 6 -38
196 -49 288 -2 19 -8 58 -14 85 -5 28 -15 132 -22 233 l-12 182 -31 -1 c-20
-1 -42 -12 -63 -33z m92 -754 c2 -10 3 -27 0 -39 -5 -27 -51 -90 -74 -102 -47
-25 -93 56 -51 91 11 9 20 19 20 23 0 11 28 35 52 44 28 10 46 5 53 -17z
m-1047 -477 c2 -11 10 -33 18 -50 13 -29 55 -205 49 -205 -10 0 -115 247 -115
271 0 19 45 5 48 -16z m392 -210 c0 -24 -5 -56 -10 -71 -10 -24 -13 -26 -26
-13 -8 8 -19 42 -24 74 -8 50 -7 62 7 78 17 18 18 18 35 -3 11 -14 18 -39 18
-65z"/>
<path d="M9825 9743 c-22 -19 -132 -115 -244 -212 -113 -97 -228 -196 -256
-221 -28 -25 -78 -68 -110 -96 -304 -262 -400 -348 -400 -358 0 -15 395 -476
408 -476 12 0 207 171 207 182 0 5 -38 52 -84 105 l-83 96 41 36 c22 20 43 38
46 41 3 3 36 32 74 65 l68 59 27 -30 c14 -16 49 -55 76 -86 l50 -57 103 89
102 89 -76 87 c-62 72 -73 90 -62 98 8 6 45 38 82 71 106 93 102 92 133 55 15
-18 32 -38 39 -45 7 -7 31 -33 53 -59 l40 -46 105 91 c59 51 106 95 106 98 0
5 -40 52 -149 176 -14 17 -75 87 -136 158 -60 70 -112 127 -115 127 -3 0 -23
-17 -45 -37z"/>
<path d="M5710 9737 c-3 -2 -43 -7 -90 -11 -93 -7 -96 -8 -255 -31 -386 -58
-798 -194 -1155 -382 -454 -240 -811 -529 -1164 -943 -99 -116 -242 -321 -343
-490 -233 -390 -421 -917 -478 -1340 -3 -25 -8 -56 -10 -70 -5 -28 -12 -91
-24 -225 -9 -89 -7 -552 2 -610 3 -16 8 -61 12 -100 29 -308 143 -744 274
-1048 198 -462 462 -850 820 -1207 536 -535 1211 -891 1956 -1034 92 -17 106
-20 281 -42 212 -27 690 -24 889 6 33 5 80 12 105 15 91 12 307 58 428 91
1237 339 2226 1298 2606 2526 49 158 97 362 120 509 15 94 19 122 36 269 4 41
7 210 6 375 -3 270 -13 417 -40 570 -147 827 -490 1494 -1066 2075 -565 570
-1341 957 -2135 1064 -60 9 -128 18 -150 21 -49 7 -618 18 -625 12z m570 -362
c236 -25 550 -92 755 -160 787 -263 1460 -810 1878 -1525 259 -444 399 -887
457 -1450 8 -82 5 -551 -5 -615 -3 -22 -10 -78 -16 -125 -7 -47 -13 -94 -15
-105 -2 -11 -7 -36 -10 -55 -37 -207 -132 -523 -219 -725 -260 -605 -682
-1118 -1226 -1488 -717 -489 -1585 -684 -2445 -551 -1263 195 -2299 1066
-2721 2289 -182 526 -226 1150 -122 1720 103 560 353 1103 707 1534 98 120 87
107 208 232 452 466 1011 786 1638 940 188 46 331 68 561 88 96 9 484 6 575
-4z"/>
<path d="M5906 9005 c-41 -104 -53 -125 -70 -125 -53 -1 -203 -12 -224 -16
-22 -4 -18 -9 35 -52 33 -26 79 -64 103 -85 l44 -38 -31 -126 c-18 -70 -31
-129 -29 -130 2 -2 53 28 114 67 l110 71 110 -70 c61 -39 113 -71 116 -71 4 0
-42 184 -60 242 -3 12 23 40 96 99 55 45 100 85 100 89 0 3 -24 7 -52 8 -104
4 -203 14 -209 20 -3 4 -25 57 -49 117 -24 61 -46 113 -49 117 -3 4 -28 -49
-55 -117z"/>
<path d="M4485 8728 c2 -18 6 -53 9 -78 3 -25 8 -70 11 -100 l7 -55 -59 -35
c-32 -19 -69 -42 -83 -51 -14 -9 -38 -24 -54 -34 -38 -23 -30 -27 115 -55
l116 -22 27 -117 c15 -65 31 -123 35 -130 5 -8 31 30 72 104 l64 116 50 -5
c126 -13 215 -18 215 -11 0 4 -22 30 -49 58 -110 116 -122 132 -118 152 2 11
25 68 50 128 25 59 44 107 42 107 -2 0 -58 -25 -125 -55 l-121 -55 -98 85
c-54 47 -101 85 -105 85 -3 0 -4 -15 -1 -32z"/>
<path d="M7399 8733 c-19 -15 -64 -53 -101 -86 l-67 -58 -121 56 c-67 30 -123
55 -125 55 -2 0 19 -56 47 -124 l51 -124 -33 -39 c-18 -21 -57 -64 -86 -96
-30 -31 -54 -60 -54 -63 0 -6 78 -1 215 12 l50 4 64 -116 c43 -78 66 -112 71
-103 4 8 20 66 35 130 l27 116 117 23 c64 13 122 26 130 30 9 5 -17 26 -83 66
-54 33 -104 64 -113 70 -14 10 -14 23 0 140 8 71 14 130 12 132 -1 2 -18 -10
-36 -25z"/>
<path d="M5960 8016 c0 -39 -3 -44 -36 -60 -85 -40 -150 -120 -156 -192 -2
-15 -7 -28 -13 -29 -5 -2 -62 -6 -125 -9 -139 -7 -206 -19 -327 -57 l-93 -30
0 -88 0 -87 63 -22 c34 -11 76 -23 92 -27 17 -3 39 -7 51 -9 59 -12 157 -18
317 -21 98 -2 181 -6 184 -9 6 -6 7 -41 18 -726 4 -239 9 -505 10 -590 9 -390
9 -394 -51 -430 -22 -14 -51 -20 -95 -21 -162 -2 -366 95 -598 285 l-75 60 87
27 c89 27 121 45 112 60 -3 4 -45 20 -93 34 -144 44 -373 160 -497 251 -16 12
-41 25 -53 29 -24 7 -24 7 -17 -62 22 -231 116 -457 249 -598 63 -66 74 -62
75 33 0 42 0 88 0 100 1 21 7 18 54 -30 113 -117 232 -196 467 -310 85 -41
187 -94 225 -118 39 -24 90 -54 114 -68 43 -25 165 -139 188 -177 12 -19 14
-19 35 10 87 115 258 239 525 379 215 112 303 174 426 298 37 38 68 67 68 66
1 -2 3 -45 4 -96 2 -52 5 -95 7 -97 10 -10 57 26 91 70 94 123 169 298 192
450 15 98 18 122 19 160 1 51 -14 50 -92 -9 -68 -51 -220 -145 -294 -182 -29
-14 -100 -43 -158 -64 -61 -22 -106 -44 -108 -52 -3 -15 35 -30 151 -60 l48
-12 -48 -43 c-84 -76 -237 -188 -314 -231 -144 -79 -303 -115 -376 -85 -41 16
-63 59 -68 131 -4 71 -17 969 -19 1347 l-1 280 43 1 c304 11 477 36 595 86
l47 21 -1 83 -1 83 -40 16 c-49 19 -146 42 -213 50 -93 12 -120 14 -200 16
-99 2 -102 3 -103 39 -1 54 -62 129 -133 165 -26 13 -49 21 -53 18 -3 -4 -7 9
-7 28 -2 65 -1 64 -51 66 l-48 2 0 -43z m5 -221 l1 -65 -54 0 c-45 0 -53 3
-48 16 3 9 6 21 6 28 0 15 69 86 84 86 7 0 11 -25 11 -65z m131 49 c27 -18 42
-41 54 -85 l9 -29 -50 0 -49 0 0 65 c0 36 2 65 5 65 3 0 17 -7 31 -16z"/>
<path d="M3705 7784 c-38 -53 -75 -100 -81 -105 -7 -6 -57 1 -138 20 -100 22
-126 25 -122 14 3 -8 35 -56 71 -107 36 -52 65 -99 65 -105 0 -5 -24 -50 -54
-99 -81 -133 -82 -136 -60 -129 11 3 70 20 132 38 l113 33 47 -54 c26 -30 66
-75 89 -100 l43 -45 1 40 c1 22 3 67 4 100 2 33 4 76 4 95 1 35 1 35 117 84
63 28 117 53 119 57 3 4 -51 26 -120 50 -122 43 -125 45 -127 74 0 16 -2 35
-3 40 -1 6 -5 52 -9 103 -5 50 -11 92 -15 91 -3 0 -37 -43 -76 -95z"/>
<path d="M8129 7840 c-1 -22 -2 -43 -3 -47 -2 -5 -6 -46 -10 -93 l-8 -86 -124
-43 c-68 -24 -122 -47 -119 -50 2 -4 56 -30 119 -57 l116 -49 1 -55 c1 -56 6
-170 8 -203 1 -15 7 -12 29 14 15 18 46 54 69 79 22 25 50 56 61 70 l20 24
127 -37 c70 -21 129 -36 131 -35 1 2 -26 52 -62 112 -35 59 -64 112 -64 118 0
5 32 57 72 114 39 57 69 106 67 108 -2 2 -58 -9 -124 -25 -66 -15 -123 -28
-127 -28 -3 -1 -43 46 -88 104 -44 58 -83 105 -85 105 -3 0 -6 -18 -6 -40z"/>
<path d="M3197 6603 c-3 -10 -16 -68 -28 -130 -19 -94 -26 -113 -43 -117 -12
-4 -64 -16 -116 -27 -52 -12 -101 -24 -109 -29 -9 -5 24 -29 102 -74 l116 -67
-5 -42 c-2 -23 -8 -83 -12 -134 -9 -104 -14 -102 73 -22 28 26 67 61 87 79
l38 32 119 -51 c66 -28 122 -51 124 -51 3 0 -19 54 -49 121 -30 66 -51 126
-47 132 5 10 34 44 147 176 l21 24 -60 -7 c-33 -3 -91 -9 -130 -12 -38 -4 -72
-8 -74 -10 -2 -2 -34 46 -71 107 -79 129 -77 126 -83 102z"/>
<path d="M8660 6534 c-29 -49 -61 -101 -71 -115 l-18 -25 -108 13 c-59 7 -118
12 -131 11 -23 -3 -23 -4 -5 -23 49 -55 140 -161 146 -172 4 -6 -17 -64 -47
-130 -29 -65 -52 -119 -51 -121 2 -2 57 20 124 48 l122 51 42 -37 c23 -20 68
-62 101 -93 l59 -55 -8 109 c-4 61 -8 123 -9 139 -1 26 8 33 113 94 74 42 109
67 100 72 -8 4 -59 17 -114 29 -55 12 -107 24 -116 27 -12 3 -22 35 -39 122
-13 64 -26 123 -30 131 -5 9 -25 -16 -60 -75z"/>
<path d="M3490 5164 c-52 -41 -100 -74 -105 -74 -6 0 -61 26 -123 59 -61 32
-112 56 -112 52 0 -3 19 -61 42 -129 l42 -123 -92 -89 c-51 -48 -92 -91 -92
-95 0 -3 59 -5 131 -2 l131 4 59 -120 c33 -65 62 -117 65 -114 2 2 20 58 39
123 20 65 39 121 43 125 4 3 63 14 132 24 69 9 126 18 128 20 2 1 -45 35 -103
75 -59 39 -108 77 -111 83 -2 7 5 61 16 121 22 121 24 136 13 135 -5 0 -51
-34 -103 -75z"/>
<path d="M8320 5228 c0 -7 9 -65 20 -128 l20 -115 -27 -23 c-16 -12 -66 -48
-113 -79 -54 -37 -79 -59 -68 -61 9 -2 70 -11 135 -20 l118 -17 35 -115 c20
-63 38 -122 41 -130 4 -9 30 32 67 106 l60 121 131 -4 c72 -3 131 -2 131 1 0
3 -42 46 -92 96 l-93 91 43 122 c23 67 42 125 42 128 0 3 -53 -21 -119 -55
l-118 -62 -89 69 c-106 82 -124 93 -124 75z"/>
<path d="M7357 5181 c-24 -41 -153 -169 -222 -221 -70 -53 -114 -83 -207 -139
-65 -39 -68 -40 -69 -18 -1 12 -2 68 -3 124 0 57 -2 103 -3 103 -2 0 -24 -16
-50 -36 -119 -91 -308 -152 -558 -180 -94 -10 -381 -7 -475 5 -203 27 -358 79
-438 145 -56 48 -61 40 -56 -89 2 -63 1 -115 -2 -115 -11 0 -147 76 -212 118
-122 79 -216 162 -296 261 l-28 35 2 -140 c2 -76 2 -145 1 -151 -1 -10 -36
-13 -141 -13 -77 0 -140 -2 -140 -5 0 -2 22 -25 50 -51 253 -237 510 -410 760
-513 74 -30 235 -82 297 -95 l32 -7 -2 70 c-2 39 -1 75 2 80 4 5 38 3 79 -5
149 -28 410 -37 577 -20 84 9 245 36 272 47 26 9 24 14 27 -86 1 -45 5 -60 17
-63 20 -4 199 59 311 109 168 76 345 186 498 311 117 96 282 257 274 269 -3 6
-57 10 -127 9 -67 -1 -127 -1 -134 -1 -8 1 -11 39 -10 142 1 77 -1 142 -4 144
-3 2 -13 -9 -22 -24z"/>
<path d="M4112 4154 l-60 -119 -131 3 c-72 2 -131 1 -131 -3 0 -3 41 -46 91
-95 l90 -89 -44 -123 c-25 -68 -43 -125 -41 -127 2 -2 53 21 114 53 60 31 114
56 120 56 5 0 56 -36 112 -79 57 -44 103 -79 104 -78 2 2 -12 96 -21 147 -3
14 -7 48 -11 75 l-5 50 105 69 c59 37 106 72 106 76 0 4 -28 11 -62 15 -35 5
-65 9 -68 10 -3 1 -33 5 -66 10 l-62 7 -32 117 c-18 64 -36 122 -40 130 -5 9
-29 -28 -68 -105z"/>
<path d="M7731 4238 c-5 -18 -22 -77 -37 -130 -26 -93 -29 -98 -56 -99 -15 -1
-31 -2 -35 -3 -5 -1 -50 -8 -100 -16 -51 -8 -93 -17 -93 -20 0 -4 47 -38 105
-76 l105 -69 -6 -55 c-3 -30 -12 -91 -19 -135 -8 -43 -13 -80 -12 -82 2 -1 48
34 104 78 56 43 107 79 113 79 7 0 59 -25 117 -56 57 -30 108 -54 112 -52 4 2
-12 58 -37 126 l-45 122 92 91 c50 49 91 92 91 95 0 3 -59 4 -131 2 l-131 -4
-59 118 c-33 65 -61 118 -63 118 -3 0 -9 -15 -15 -32z"/>
<path d="M5176 3508 l6 -137 -116 -58 c-64 -32 -116 -61 -116 -65 0 -3 26 -14
58 -23 193 -55 190 -54 196 -83 3 -15 13 -75 22 -134 l17 -108 74 110 c86 126
68 119 233 91 58 -10 107 -16 109 -15 2 2 -29 45 -69 96 -40 51 -77 98 -82
105 -6 7 12 54 52 132 33 67 58 121 56 121 -3 0 -60 -20 -128 -45 l-122 -45
-98 97 -98 98 6 -137z"/>
<path d="M6650 3545 l-95 -95 -124 45 c-69 25 -126 44 -127 42 -1 -1 24 -55
57 -120 l60 -118 -82 -105 c-45 -58 -80 -106 -78 -108 2 -1 62 7 132 18 l128
22 42 -61 c24 -33 56 -81 72 -107 30 -48 44 -59 46 -35 0 6 2 21 4 32 2 11 11
63 19 114 9 52 18 96 20 98 3 3 57 20 122 39 115 33 139 43 119 51 -5 2 -57
28 -115 57 l-105 53 2 137 c1 75 1 136 0 136 -1 0 -45 -43 -97 -95z"/>
<path d="M10345 8937 c-82 -46 -172 -96 -200 -112 -53 -30 -171 -96 -245 -137
-25 -14 -97 -55 -160 -90 -63 -36 -197 -111 -298 -167 l-182 -103 18 -31 c11
-18 45 -78 77 -134 31 -57 59 -103 61 -103 2 0 20 10 41 22 21 11 110 61 198
111 88 49 192 107 230 129 l70 39 -40 -42 c-90 -94 -146 -153 -272 -282 -73
-75 -133 -140 -133 -146 0 -5 15 -36 34 -68 18 -32 52 -92 75 -133 23 -42 46
-74 53 -72 7 2 197 107 423 234 225 127 430 242 455 256 25 13 59 32 75 42 33
19 98 55 190 106 33 18 64 39 69 46 5 9 -2 31 -21 63 -16 28 -46 82 -67 120
-21 39 -42 74 -46 79 -7 7 -394 -201 -505 -272 -46 -30 -41 -20 41 68 28 30
82 89 119 130 38 41 92 100 121 130 88 94 114 124 114 133 0 5 -14 34 -31 65
-18 32 -50 90 -71 130 -22 39 -40 72 -41 72 -1 0 -69 -38 -152 -83z"/>
<path d="M1315 8752 c-40 -28 -60 -122 -30 -139 8 -5 21 -27 29 -51 8 -23 27
-54 41 -69 14 -15 25 -32 25 -37 0 -5 17 -34 38 -65 20 -31 42 -63 47 -72 44
-70 87 -129 93 -129 5 0 16 -22 25 -48 10 -27 33 -64 52 -82 19 -19 35 -37 35
-42 0 -15 143 -198 155 -198 3 0 21 -11 39 -25 30 -23 34 -23 54 -9 12 8 22
24 22 35 0 10 4 19 9 19 5 0 13 9 16 21 5 15 -1 29 -19 48 -14 15 -26 30 -26
34 0 12 -43 71 -62 85 -10 7 -34 38 -54 68 -20 31 -47 62 -59 70 -12 8 -27 26
-33 40 -7 13 -16 30 -22 37 -43 53 -66 84 -114 156 -31 45 -56 89 -56 97 0 8
-4 14 -10 14 -5 0 -10 7 -10 15 0 9 -7 18 -15 21 -8 3 -23 25 -35 49 -11 23
-29 50 -40 60 -11 10 -20 24 -20 31 0 14 -48 74 -58 74 -4 0 -12 -4 -17 -8z"/>
<path d="M10740 7843 c-107 -24 -646 -181 -718 -210 -188 -74 -253 -157 -258
-328 -6 -215 96 -410 253 -483 80 -37 166 -35 333 8 69 17 126 33 128 35 5 4
-87 327 -97 344 -6 9 -40 3 -136 -24 -185 -54 -225 -50 -225 22 0 31 4 35 46
53 65 28 769 230 825 237 56 7 82 -13 77 -61 -4 -39 -28 -51 -219 -106 -79
-23 -146 -43 -147 -45 -4 -4 87 -327 97 -343 10 -16 223 48 327 97 138 66 197
162 197 321 1 232 -122 430 -300 484 -44 14 -119 13 -183 -1z"/>
<path d="M1616 7595 c-2 -7 4 -42 15 -77 18 -59 20 -152 5 -242 -7 -44 -21
-22 -21 32 1 65 -19 138 -45 166 -24 25 -68 24 -86 -2 -8 -12 -21 -28 -30 -36
-8 -9 -17 -43 -21 -79 -4 -52 -2 -70 16 -104 28 -57 90 -120 121 -124 21 -3
26 -11 31 -46 9 -70 -3 -72 -68 -12 -32 30 -103 94 -158 141 -89 77 -281 268
-327 326 -10 12 -24 22 -32 22 -18 0 -41 -28 -43 -54 -1 -12 -5 -32 -8 -46 -4
-19 1 -31 22 -52 76 -72 107 -98 120 -98 8 0 12 -4 9 -9 -9 -14 147 -155 269
-245 l67 -48 -31 -19 c-17 -10 -36 -19 -41 -19 -6 0 -11 -8 -12 -17 -3 -37 -5
-48 -11 -63 -7 -19 -20 -142 -21 -197 -1 -25 -8 -51 -18 -63 -10 -11 -18 -29
-18 -41 0 -11 -5 -30 -11 -41 -9 -16 -8 -35 1 -77 10 -44 24 -69 66 -117 30
-34 54 -66 54 -73 0 -6 4 -11 8 -11 4 0 13 -18 19 -40 l10 -40 -55 30 c-79 43
-101 33 -118 -49 -1 -7 7 -37 18 -67 25 -65 19 -95 -12 -64 -11 11 -25 20 -31
20 -6 0 -25 10 -42 23 -18 13 -50 32 -71 43 -22 10 -48 27 -58 37 -10 9 -22
17 -28 17 -5 0 -19 9 -31 21 -12 12 -26 22 -33 23 -6 1 -29 12 -49 24 -21 12
-41 22 -45 22 -4 0 -12 10 -17 22 -6 13 -18 24 -28 26 -25 5 -61 -81 -49 -117
9 -27 87 -89 113 -90 9 -1 34 -14 55 -29 21 -16 46 -31 54 -35 8 -4 47 -25 85
-47 39 -22 90 -49 115 -61 89 -41 163 -80 170 -89 3 -3 20 -12 39 -20 18 -7
48 -23 66 -36 63 -42 95 -34 95 25 0 33 -5 40 -37 58 -79 44 -183 166 -183
213 0 26 10 25 54 -5 20 -14 52 -36 72 -49 85 -59 118 38 43 129 -15 19 -59
105 -59 116 0 3 16 11 35 19 68 27 76 83 28 190 -21 45 -73 110 -88 110 -23 0
-48 38 -43 65 3 14 1 28 -3 31 -5 3 -9 9 -9 15 0 5 12 -4 28 -21 17 -18 43
-33 69 -39 42 -9 44 -8 84 32 23 23 45 51 49 62 9 24 1 93 -11 101 -5 3 -9 18
-9 34 0 21 6 29 25 34 23 6 30 22 27 61 -1 16 -23 128 -28 147 -4 12 2 19 21
24 54 13 72 106 50 254 -4 25 -8 54 -9 65 -5 52 -38 133 -56 138 -10 3 -21 -1
-24 -8z m-42 -258 c13 -86 14 -107 5 -107 -5 0 -9 7 -9 15 0 8 -4 15 -8 15
-13 0 -30 65 -25 93 7 35 31 24 37 -16z m-30 -406 c7 -14 14 -47 15 -73 1 -36
-3 -51 -20 -67 -20 -18 -24 -19 -50 -6 -31 16 -37 32 -35 90 2 83 59 118 90
56z m-80 -407 c32 -33 36 -84 7 -84 -36 0 -74 53 -64 88 7 29 25 28 57 -4z"/>
<path d="M11277 6724 c-1 -1 -51 -5 -112 -8 -60 -4 -126 -9 -145 -11 -19 -3
-73 -7 -120 -10 -87 -5 -122 -8 -340 -25 -69 -5 -165 -12 -215 -15 -49 -3
-103 -8 -120 -10 -16 -2 -77 -7 -135 -11 -96 -6 -131 -9 -153 -13 -5 0 -6 -4
-4 -8 3 -5 8 -53 12 -108 10 -155 14 -206 19 -260 3 -27 8 -95 12 -150 3 -55
9 -103 12 -106 4 -3 68 -1 142 5 l135 11 -4 85 c-2 47 -5 108 -5 135 l-1 50
95 7 c52 4 120 9 150 11 l55 4 3 -56 c2 -31 5 -65 7 -76 2 -11 4 -37 4 -58 l1
-39 98 8 c53 4 106 8 117 9 11 1 28 3 38 4 17 1 18 9 12 116 l-7 115 38 1 c22
0 57 2 79 4 22 2 64 6 93 9 l52 4 1 -36 c0 -20 2 -48 4 -62 2 -14 4 -47 6 -75
3 -68 7 -76 35 -71 12 3 76 8 140 12 l116 7 -6 91 c-4 50 -8 109 -11 131 -2
22 -7 87 -11 145 -3 58 -8 116 -9 130 -2 14 -3 47 -4 73 l-1 48 -35 -3 c-20
-1 -37 -3 -38 -4z"/>
<path d="M693 6090 c-13 -5 -23 -16 -23 -25 0 -8 -4 -15 -10 -15 -5 0 -17 -17
-27 -37 -27 -58 -21 -265 9 -301 8 -9 24 -44 37 -77 28 -72 69 -145 80 -145 5
0 11 -12 14 -27 3 -16 22 -46 42 -67 19 -22 35 -43 35 -47 0 -14 73 -50 82
-41 9 9 -39 121 -66 151 -18 21 -66 113 -66 126 0 6 -11 26 -24 44 -14 19 -28
48 -32 65 -3 17 -11 37 -18 45 -19 24 -37 133 -25 148 15 17 40 17 76 -1 15
-8 40 -20 56 -27 15 -7 27 -17 27 -23 0 -6 18 -22 40 -36 40 -25 123 -134 185
-244 17 -29 36 -61 44 -70 8 -9 11 -19 8 -22 -5 -5 -91 23 -175 57 -32 13 -62
11 -62 -3 0 -7 10 -31 23 -53 19 -34 38 -48 127 -93 58 -29 119 -58 135 -64
17 -7 35 -16 41 -22 6 -6 37 -19 70 -30 92 -29 182 -65 257 -103 29 -15 47
-11 47 11 0 8 9 16 21 19 16 4 18 9 11 24 -6 10 -18 34 -28 54 -18 37 -32 46
-144 89 -30 11 -64 25 -75 30 -11 5 -30 12 -42 15 -24 7 -32 25 -10 25 16 0
85 38 140 76 24 17 74 46 110 64 62 30 66 34 62 63 -2 16 -11 37 -19 45 -14
14 -13 17 2 29 12 11 14 16 4 19 -6 3 -9 10 -6 16 13 21 -66 -3 -126 -38 -32
-18 -63 -34 -69 -34 -5 0 -16 -8 -23 -18 -7 -10 -46 -34 -87 -54 l-74 -37 -14
26 c-7 14 -13 32 -13 40 0 8 -7 27 -15 41 -8 15 -24 48 -35 75 -10 26 -23 47
-28 47 -5 0 -15 13 -22 30 -7 16 -16 27 -20 25 -5 -3 -11 3 -15 12 -18 55
-123 136 -278 217 -73 38 -80 40 -114 26z"/>
<path d="M10956 5421 c-4 -5 -2 -21 3 -34 21 -54 44 -186 46 -267 4 -106 11
-113 54 -52 12 18 26 30 31 27 13 -8 58 -154 69 -225 20 -126 -7 -220 -63
-220 -12 0 -112 31 -221 69 -110 38 -303 105 -428 148 -204 70 -228 80 -224
98 2 11 17 61 32 110 14 50 29 126 32 170 l5 80 -47 14 c-48 14 -48 14 -72
-15 -26 -32 -113 -203 -113 -222 0 -8 -17 -12 -45 -12 -35 0 -51 -6 -80 -31
-26 -23 -41 -30 -59 -25 -34 8 -47 -30 -18 -53 11 -9 23 -32 27 -51 9 -42 39
-87 64 -95 18 -5 18 -9 -5 -80 -13 -41 -26 -110 -30 -153 l-7 -79 49 -17 48
-16 23 27 c41 51 97 168 146 305 7 21 -17 28 372 -107 154 -53 328 -113 388
-132 132 -43 144 -53 137 -118 -7 -69 -152 -215 -275 -278 l-30 -15 4 50 c4
68 -10 78 -44 29 -34 -50 -159 -170 -214 -207 -23 -15 -40 -32 -38 -38 5 -16
101 -34 187 -35 81 -1 179 20 220 46 27 18 32 14 -50 46 l-35 14 37 16 c58 24
147 89 218 157 150 143 200 182 267 212 26 11 50 22 52 24 2 2 -6 18 -17 36
-34 56 -64 179 -92 371 -12 83 -50 205 -75 244 -18 27 -12 28 43 9 23 -8 44
-11 46 -7 11 18 -40 94 -102 153 -68 64 -206 146 -216 129z m-916 -398 c-1
-25 -19 -35 -51 -28 -31 7 -32 8 -14 21 20 15 65 19 65 7z m-46 -94 c6 -5 6
-16 0 -28 -7 -16 -12 -18 -25 -8 -9 7 -19 23 -24 36 -6 21 -5 22 17 16 12 -4
27 -11 32 -16z"/>
<path d="M1285 4830 c-112 -25 -189 -120 -188 -235 1 -209 250 -316 402 -172
48 46 71 101 71 175 0 70 -15 109 -64 160 -57 61 -143 89 -221 72z"/>
<path d="M1563 4037 c-331 -193 -603 -356 -603 -360 0 -8 166 -296 178 -309 4
-4 115 56 247 134 132 77 255 149 273 159 l33 19 15 -35 c26 -63 17 -70 -281
-244 -115 -68 -214 -126 -218 -131 -6 -6 114 -231 159 -298 3 -5 375 210 458
266 81 55 116 144 93 237 l-8 30 31 -33 c68 -71 125 -77 237 -25 152 71 259
165 289 255 24 72 13 134 -42 248 -53 110 -242 440 -252 440 -4 0 -278 -159
-609 -353z m602 -122 c12 -26 12 -40 4 -58 -14 -31 -173 -127 -209 -127 -28 0
-75 41 -69 59 3 9 242 158 257 160 2 1 10 -15 17 -34z"/>
<path d="M9439 3858 c-51 -68 -96 -128 -101 -135 -6 -8 30 -56 113 -150 68
-76 126 -140 129 -143 3 -3 28 -29 55 -59 l50 -53 -75 41 c-180 99 -393 202
-400 194 -27 -29 -190 -253 -190 -260 0 -5 195 -84 434 -175 l435 -167 200
-152 c110 -83 204 -148 209 -145 9 5 178 225 195 253 5 8 -62 65 -190 161
-109 83 -207 161 -219 174 -11 12 -139 184 -283 381 -144 196 -264 357 -266
357 -2 0 -45 -55 -96 -122z"/>
<path d="M2539 3515 c-102 -21 -139 -47 -434 -314 -359 -324 -398 -374 -408
-515 -9 -109 42 -223 147 -331 101 -104 178 -140 296 -140 132 0 184 31 442
266 50 46 114 104 142 129 119 106 265 258 283 295 80 160 40 322 -117 481
-105 106 -234 153 -351 129z m199 -317 c36 -36 9 -67 -313 -358 -99 -89 -199
-180 -222 -202 -125 -116 -163 -136 -197 -102 -27 27 -18 46 62 124 74 73 140
134 416 383 44 40 86 79 94 87 72 71 132 96 160 68z"/>
<path d="M8927 3165 c-73 -25 -174 -96 -292 -204 -27 -25 -83 -75 -124 -111
-41 -36 -80 -71 -87 -78 -15 -15 -18 -38 -6 -44 4 -1 115 -124 247 -273 132
-148 242 -272 245 -275 3 -3 57 -63 120 -135 63 -71 117 -132 120 -135 3 -3
41 -45 84 -95 44 -49 85 -96 92 -104 11 -12 18 -10 46 11 18 14 44 36 58 49
14 14 65 60 115 104 287 255 339 317 339 405 0 63 -33 126 -120 229 -136 163
-224 231 -299 231 -19 0 -60 -8 -89 -19 l-53 -19 25 45 c37 67 34 125 -10 193
-45 71 -161 180 -221 208 -56 26 -141 34 -190 17z m26 -316 c54 -28 158 -166
150 -198 -3 -11 -16 -30 -30 -43 l-24 -23 -42 45 c-23 25 -70 77 -104 115
l-62 70 27 22 c30 25 53 28 85 12z m426 -466 c137 -144 150 -172 101 -233
l-20 -25 -43 45 c-23 25 -76 83 -117 130 -41 46 -81 91 -88 98 -7 8 -9 18 -6
24 8 12 66 48 79 48 6 0 48 -39 94 -87z"/>
<path d="M3078 2776 c-90 -118 -280 -368 -423 -556 -143 -187 -260 -346 -260
-352 0 -12 444 -357 460 -357 6 0 47 50 92 110 l83 111 -48 36 c-26 21 -64 50
-84 65 -21 15 -38 32 -38 36 0 4 48 71 108 148 358 469 557 735 557 745 0 10
-136 120 -257 209 l-27 19 -163 -214z"/>
<path d="M3514 2252 c-115 -207 -219 -395 -231 -417 -12 -22 -71 -130 -132
-240 -85 -154 -108 -202 -98 -211 7 -6 50 -32 97 -57 47 -24 154 -84 239 -131
84 -47 159 -86 165 -86 10 0 127 205 134 235 2 7 -40 36 -93 65 l-96 51 24 42
c14 23 36 62 50 87 172 313 452 820 463 836 14 23 26 15 -262 175 l-51 29
-209 -378z"/>
<path d="M8175 2597 c-54 -18 -216 -101 -388 -198 -78 -44 -143 -82 -145 -83
-2 -3 683 -1224 691 -1233 5 -4 312 176 315 185 1 5 -21 51 -51 103 -157 274
-247 438 -247 447 0 15 70 27 89 15 18 -11 76 -95 113 -163 59 -112 191 -341
198 -345 6 -4 258 132 298 160 5 4 -255 458 -282 492 -40 49 -107 76 -173 70
-56 -6 -66 0 -33 21 25 15 60 83 60 117 0 107 -152 345 -254 397 -49 25 -138
32 -191 15z m23 -316 c34 -36 102 -169 102 -198 0 -20 -42 -63 -60 -63 -7 0
-90 135 -90 146 0 2 -13 25 -30 51 -37 58 -37 69 -2 81 42 16 52 14 80 -17z"/>
<path d="M4217 2333 c-3 -10 -23 -65 -44 -123 -212 -565 -328 -875 -348 -925
-47 -121 -96 -258 -93 -260 2 -2 129 -50 283 -108 154 -57 287 -108 296 -111
13 -6 25 18 66 126 34 91 47 135 39 140 -6 3 -60 25 -120 47 -61 23 -112 43
-114 45 -3 4 95 276 102 283 1 2 49 -15 106 -37 57 -22 105 -38 107 -36 6 5
93 237 93 245 0 4 -46 25 -102 46 -57 21 -104 39 -106 40 -3 2 85 235 91 242
3 2 53 -15 112 -37 59 -23 111 -37 116 -33 4 4 28 62 52 128 34 91 42 123 34
131 -10 9 -547 214 -561 214 -2 0 -6 -8 -9 -17z"/>
<path d="M7250 2188 c-151 -49 -277 -92 -279 -93 -3 -4 68 -226 291 -905 60
-184 116 -357 125 -385 9 -27 17 -51 18 -53 2 -2 99 28 217 67 117 39 252 83
301 98 48 15 87 32 87 38 0 9 -80 256 -85 263 -1 1 -57 -16 -125 -38 -68 -23
-126 -37 -130 -33 -7 8 -90 261 -90 275 0 4 44 21 98 38 53 18 101 36 105 40
6 5 -65 244 -77 257 0 1 -48 -14 -105 -33 -57 -19 -107 -31 -111 -27 -6 7 -54
148 -75 220 -5 20 3 24 109 58 l114 37 -18 61 c-53 177 -64 207 -79 206 -9 0
-140 -41 -291 -91z"/>
<path d="M4876 2091 c-3 -9 -14 -74 -26 -146 -12 -71 -23 -141 -26 -155 -2
-14 -27 -162 -54 -330 -28 -168 -52 -314 -54 -325 -31 -173 -67 -417 -62 -422
5 -5 86 -21 191 -37 22 -4 66 -11 98 -17 31 -5 61 -8 66 -5 5 3 12 34 16 68 5
35 9 65 10 68 1 3 5 30 10 60 5 30 9 57 10 60 2 8 16 93 20 120 4 26 23 140
30 175 2 11 4 30 4 43 1 30 44 30 75 -1 28 -28 27 -48 -15 -301 -16 -98 -31
-191 -33 -205 -3 -14 -7 -45 -11 -68 -8 -48 -33 -38 198 -77 75 -13 137 -20
137 -17 0 3 13 85 29 182 52 313 59 366 49 414 -11 53 -43 97 -90 126 -43 27
-49 41 -15 35 32 -5 96 20 120 47 42 47 75 169 81 300 5 95 -9 159 -47 216
-53 80 -152 114 -509 174 -174 29 -198 31 -202 18z m371 -301 c52 -19 57 -51
28 -194 -15 -72 -33 -102 -63 -104 -33 -2 -61 8 -58 21 3 6 14 74 27 150 12
75 25 137 29 137 4 0 21 -5 37 -10z"/>
<path d="M6445 2010 c-33 -4 -82 -10 -110 -13 -139 -14 -261 -31 -267 -36 -4
-4 -3 -35 2 -71 5 -36 12 -92 15 -125 4 -33 10 -87 15 -120 5 -33 12 -87 15
-120 4 -33 8 -67 10 -75 2 -8 7 -46 11 -85 3 -38 8 -79 10 -90 2 -10 10 -78
19 -150 21 -185 25 -216 30 -250 3 -16 7 -55 10 -85 3 -30 8 -64 10 -75 2 -11
7 -49 11 -85 3 -36 8 -67 10 -69 4 -4 410 45 525 65 125 21 177 41 224 89 50
50 64 95 59 199 -3 82 -1 70 -44 416 -68 555 -81 594 -220 666 -40 20 -230 29
-335 14z m100 -254 c12 -8 25 -25 28 -38 9 -34 86 -650 93 -738 5 -64 3 -79
-12 -98 -23 -27 -84 -42 -84 -20 0 7 -16 137 -35 288 -36 291 -42 335 -51 415
-3 28 -7 61 -9 75 -2 14 -6 48 -10 75 l-6 51 32 2 c17 1 42 -4 54 -12z"/>
</g>
</svg>
